<?xml version="1.0" encoding="UTF-8" standalone="no"?>
<!-- Created with Inkscape (http://www.inkscape.org/) -->

<svg
   width="209.26923mm"
   height="26.859995mm"
   viewBox="0 0 209.26923 26.859995"
   version="1.1"
   id="svg1"
   inkscape:version="1.4.2 (ebf0e940, 2025-05-08)"
   sodipodi:docname="blocks-logo-and-text_colour_web_YELLOW.svg"
   inkscape:export-filename="blocks-logo-and-text_colour_web.png"
   inkscape:export-xdpi="500"
   inkscape:export-ydpi="500"
   xmlns:inkscape="http://www.inkscape.org/namespaces/inkscape"
   xmlns:sodipodi="http://sodipodi.sourceforge.net/DTD/sodipodi-0.dtd"
   xmlns="http://www.w3.org/2000/svg"
   xmlns:svg="http://www.w3.org/2000/svg">
  <sodipodi:namedview
     id="namedview1"
     pagecolor="#ffffff"
     bordercolor="#000000"
     borderopacity="0.25"
     inkscape:showpageshadow="2"
     inkscape:pageopacity="0.0"
     inkscape:pagecheckerboard="0"
     inkscape:deskcolor="#d1d1d1"
     inkscape:document-units="mm"
     inkscape:zoom="1.7609511"
     inkscape:cx="380.19227"
     inkscape:cy="26.122247"
     inkscape:window-width="2560"
     inkscape:window-height="1387"
     inkscape:window-x="0"
     inkscape:window-y="25"
     inkscape:window-maximized="1"
     inkscape:current-layer="g2"
     showguides="true" />
  <defs
     id="defs1" />
  <g
     inkscape:label="Layer 1"
     inkscape:groupmode="layer"
     id="layer1"
     transform="translate(-43.865384,-91.570002)">
    <g
       id="g2"
       transform="translate(-0.05345177,-2.25e-5)">
      <path
         id="path5-7-1-0-3-5-4-8-6-9-1"
         style="fill:#f9d84f;fill-opacity:1;stroke:none;stroke-width:0.199811;stroke-linejoin:bevel;stroke-dasharray:none"
         d="m 57.034809,93.634704 v 8.258776 h 6.557831 v 4.11027 h 6.558011 v 4.16746 h 13.115841 v -4.11027 l -6.55801,-0.0572 v 0 -4.09116 -0.0191 H 70.150651 V 97.7832 97.744973 H 63.59264 v -4.110272 z"
         sodipodi:nodetypes="cccccccccccccccccc" />
      <path
         style="fill:#ffe57f;fill-opacity:1;stroke:none;stroke-width:0.199811;stroke-linejoin:bevel;stroke-dasharray:none"
         d="m 66.87163,91.570025 -3.278976,2.064682 v 4.129369 l 3.278976,-2.045599 z"
         id="path7-8-7-8-0-5-9-7-9-8-0"
         sodipodi:nodetypes="ccccc" />
      <path
         style="fill:#ffe57f;fill-opacity:1;stroke:none;stroke-width:0.199811;stroke-linejoin:bevel;stroke-dasharray:none"
         d="m 70.150569,97.783224 v 4.148456 l 3.278994,-2.064685 v -4.148459 z"
         id="path9-7-8-4-7-1-2-3-4-59-4"
         sodipodi:nodetypes="ccccc" />
      <path
         style="fill:#ffee90;stroke:none;stroke-width:0.199811;stroke-linejoin:bevel;stroke-dasharray:none;fill-opacity:1"
         d="m 57.034769,93.634707 3.278942,-2.064682 h 6.557919 l -3.278976,2.064682 z"
         id="path6-9-5-3-4-5-0-8-7-2-5"
         sodipodi:nodetypes="ccccc" />
      <path
         style="fill:#ffee90;stroke:none;stroke-width:0.199811;stroke-linejoin:bevel;stroke-dasharray:none;fill-opacity:1"
         d="m 76.708488,106.05144 3.279011,-2.05514 h 6.557882 l -3.27894,2.06469 z"
         id="path6-8-9-1-2-0-4-0-8-6-55-8"
         sodipodi:nodetypes="ccccc" />
      <path
         style="fill:#ffee90;stroke:none;stroke-width:0.199811;stroke-linejoin:bevel;stroke-dasharray:none;fill-opacity:1"
         d="m 63.592654,97.764076 6.557919,0.01914 3.27899,-2.064682 H 66.87163 Z"
         id="path8-3-0-2-8-1-8-9-8-9-2"
         sodipodi:nodetypes="ccccc" />
      <path
         style="fill:#ffee90;stroke:none;stroke-width:0.199811;stroke-linejoin:bevel;stroke-dasharray:none;fill-opacity:1"
         d="m 70.150569,101.93168 6.55794,-0.0383 3.27899,-2.064679 h -6.557933 z"
         id="path8-3-0-2-8-1-8-8-6-1-1-1"
         sodipodi:nodetypes="ccccc" />
      <path
         style="fill:#ffe57f;fill-opacity:1;stroke:none;stroke-width:0.199811;stroke-linejoin:bevel;stroke-dasharray:none"
         d="m 76.708509,101.89338 -2.1e-5,4.15806 3.279011,-2.0456 v -4.177139 z"
         id="path11-2-3-3-8-1-5-8-3-1-6"
         sodipodi:nodetypes="ccccc" />
      <path
         style="fill:#ffe57f;fill-opacity:1;stroke:none;stroke-width:0.199811;stroke-linejoin:bevel;stroke-dasharray:none"
         d="m 83.266441,106.06099 v 4.11027 l 3.27894,-2.06468 v -4.11028 z"
         id="path12-6-7-5-4-9-8-6-8-4-0"
         sodipodi:nodetypes="ccccc" />
      <path
         id="path5-7-1-0-3-5-4-8-6-9"
         style="fill:#f9d84f;fill-opacity:1;stroke:none;stroke-width:0.199811;stroke-linejoin:bevel;stroke-dasharray:none"
         d="m 50.476799,97.78321 v 8.25877 h 6.557831 v 4.11028 h 6.558011 v 4.16746 h 13.115841 v -4.11027 h -6.55801 v -0.0572 -4.09116 -0.0191 h -6.557831 v -4.11027 -0.0382 H 57.03463 v -4.110273 z" />
      <path
         style="fill:#ffe57f;fill-opacity:1;stroke:none;stroke-width:0.199811;stroke-linejoin:bevel;stroke-dasharray:none"
         d="m 60.31362,95.718531 -3.278976,2.064682 v 4.129367 l 3.278976,-2.045597 z"
         id="path7-8-7-8-0-5-9-7-9-8"
         sodipodi:nodetypes="ccccc" />
      <path
         style="fill:#ffe57f;fill-opacity:1;stroke:none;stroke-width:0.199811;stroke-linejoin:bevel;stroke-dasharray:none"
         d="m 63.592559,101.93173 v 4.14845 l 3.278994,-2.06468 v -4.148458 z"
         id="path9-7-8-4-7-1-2-3-4-59"
         sodipodi:nodetypes="ccccc" />
      <path
         style="fill:#ffee90;stroke:none;stroke-width:0.199811;stroke-linejoin:bevel;stroke-dasharray:none;fill-opacity:1"
         d="m 50.476759,97.783213 3.278942,-2.064682 h 6.557919 l -3.278976,2.064682 z"
         id="path6-9-5-3-4-5-0-8-7-2"
         sodipodi:nodetypes="ccccc" />
      <path
         style="fill:#ffee90;stroke:none;stroke-width:0.199811;stroke-linejoin:bevel;stroke-dasharray:none;fill-opacity:1"
         d="m 70.150478,110.20949 3.279011,-2.06468 h 6.557882 l -3.27894,2.06468 z"
         id="path6-8-9-1-2-0-4-0-8-6-55"
         sodipodi:nodetypes="ccccc" />
      <path
         style="fill:#ffee90;stroke:none;stroke-width:0.199811;stroke-linejoin:bevel;stroke-dasharray:none;fill-opacity:1"
         d="m 57.034644,101.91258 6.557919,0.0191 3.27899,-2.064685 H 60.31362 Z"
         id="path8-3-0-2-8-1-8-9-8-9"
         sodipodi:nodetypes="ccccc" />
      <path
         style="fill:#ffee90;stroke:none;stroke-width:0.199811;stroke-linejoin:bevel;stroke-dasharray:none;fill-opacity:1"
         d="m 63.592559,106.08018 6.55794,-0.0383 3.27899,-2.06468 h -6.557933 z"
         id="path8-3-0-2-8-1-8-8-6-1-1"
         sodipodi:nodetypes="ccccc" />
      <path
         style="fill:#ffe57f;fill-opacity:1;stroke:none;stroke-width:0.199811;stroke-linejoin:bevel;stroke-dasharray:none"
         d="m 70.150478,106.05149 v 4.14846 l 3.279011,-2.0456 v -4.14845 z"
         id="path11-2-3-3-8-1-5-8-3-1"
         sodipodi:nodetypes="ccccc" />
      <path
         style="fill:#ffe57f;fill-opacity:1;stroke:none;stroke-width:0.199811;stroke-linejoin:bevel;stroke-dasharray:none"
         d="m 76.708431,110.20949 v 4.11028 l 3.27894,-2.06468 v -4.11028 z"
         id="path12-6-7-5-4-9-8-6-8-4"
         sodipodi:nodetypes="ccccc" />
      <path
         id="path5-7-1-0-3-5-4-8-6"
         style="fill:#f9d84f;fill-opacity:1;stroke:none;stroke-width:0.199811;stroke-linejoin:bevel;stroke-dasharray:none"
         d="m 43.91887,101.89346 v 8.25878 h 6.55783 v 4.11027 h 6.558011 v 4.16746 h 13.115841 v -4.11027 h -6.55801 v -0.0572 -4.09116 -0.0191 h -6.557831 v -4.11028 -0.0382 H 50.4767 v -4.11027 z" />
      <path
         style="fill:#ffe57f;fill-opacity:1;stroke:none;stroke-width:0.199811;stroke-linejoin:bevel;stroke-dasharray:none"
         d="m 53.75569,99.828785 -3.278976,2.064685 v 4.12937 l 3.278976,-2.0456 z"
         id="path7-8-7-8-0-5-9-7-9"
         sodipodi:nodetypes="ccccc" />
      <path
         style="fill:#ffe57f;fill-opacity:1;stroke:none;stroke-width:0.199811;stroke-linejoin:bevel;stroke-dasharray:none"
         d="m 57.03463,106.04198 v 4.14846 l 3.278993,-2.06469 v -4.14845 z"
         id="path9-7-8-4-7-1-2-3-4"
         sodipodi:nodetypes="ccccc" />
      <path
         style="fill:#ffee90;stroke:none;stroke-width:0.199811;stroke-linejoin:bevel;stroke-dasharray:none;fill-opacity:1"
         d="m 43.918829,101.89347 3.278942,-2.064685 h 6.557919 l -3.278976,2.064685 z"
         id="path6-9-5-3-4-5-0-8-7"
         sodipodi:nodetypes="ccccc" />
      <path
         style="fill:#ffee90;stroke:none;stroke-width:0.199811;stroke-linejoin:bevel;stroke-dasharray:none;fill-opacity:1"
         d="m 63.592549,114.31975 3.27901,-2.06469 h 6.557882 l -3.278939,2.06469 z"
         id="path6-8-9-1-2-0-4-0-8-6"
         sodipodi:nodetypes="ccccc" />
      <path
         style="fill:#ffee90;stroke:none;stroke-width:0.199811;stroke-linejoin:bevel;stroke-dasharray:none;fill-opacity:1"
         d="m 50.476714,106.02284 6.557919,0.0191 3.27899,-2.06468 H 53.75569 Z"
         id="path8-3-0-2-8-1-8-9-8"
         sodipodi:nodetypes="ccccc" />
      <path
         style="fill:#ffee90;stroke:none;stroke-width:0.199811;stroke-linejoin:bevel;stroke-dasharray:none;fill-opacity:1"
         d="m 57.03465,110.13306 6.557919,0.0191 3.27899,-2.06468 h -6.557933 z"
         id="path8-3-0-2-8-1-8-8-6-1"
         sodipodi:nodetypes="ccccc" />
      <path
         style="fill:#ffe57f;fill-opacity:1;stroke:none;stroke-width:0.199811;stroke-linejoin:bevel;stroke-dasharray:none"
         d="m 63.592549,110.16174 v 4.14846 l 3.27901,-2.0456 v -4.14845 z"
         id="path11-2-3-3-8-1-5-8-3"
         sodipodi:nodetypes="ccccc" />
      <path
         style="fill:#ffe57f;fill-opacity:1;stroke:none;stroke-width:0.199811;stroke-linejoin:bevel;stroke-dasharray:none"
         d="m 70.150502,114.31975 v 4.11027 l 3.278939,-2.06468 v -4.11028 z"
         id="path12-6-7-5-4-9-8-6-8"
         sodipodi:nodetypes="ccccc" />
      <path
         d="m 97.98416,117.2127 q 0,-2.63 0,-5.22713 0,-2.63 0,-5.22712 0,-2.63 0,-5.22713 0,-2.235495 0,-4.470995 0,-2.268375 0,-4.503875 h 11.37475 q 0,1.38075 0,2.7615 0,1.347875 0,2.728625 0,4.766875 0,9.566625 0,4.79975 0,9.5995 z m 27.15474,0.98625 q -2.03825,0 -3.945,-0.29588 -1.90675,-0.29587 -3.5505,-0.88762 -1.64375,-0.62463 -2.99163,-1.54513 -1.34787,-0.9205 -2.30125,-2.13687 -0.95337,-1.24925 -1.47937,-2.79438 -0.526,-1.578 -0.526,-3.48475 0,-2.2355 0.72325,-4.01075 0.75612,-1.80812 2.104,-3.155995 1.38075,-1.347875 3.22175,-2.2355 1.841,-0.9205 4.04362,-1.347875 2.2355,-0.46025 4.70113,-0.46025 3.09025,0 5.75312,0.72325 2.69575,0.690375 4.70113,2.104 2.03825,1.38075 3.18887,3.48475 1.15063,2.104 1.15063,4.89837 0,2.79438 -1.15063,4.89838 -1.15062,2.07112 -3.18887,3.48475 -2.00538,1.38075 -4.70113,2.07112 -2.66287,0.69038 -5.75312,0.69038 z m 0.0329,-8.71188 q 2.03825,0 2.893,-0.789 0.85475,-0.789 0.85475,-1.7095 0,-0.42737 -0.19725,-0.85475 -0.19725,-0.42737 -0.62462,-0.789 -0.42738,-0.36162 -1.15063,-0.55887 -0.72325,-0.23013 -1.77525,-0.23013 -1.052,0 -1.80812,0.23013 -0.72325,0.19725 -1.1835,0.55887 -0.42738,0.36163 -0.62463,0.789 -0.19725,0.42738 -0.19725,0.88763 0,0.46025 0.19725,0.9205 0.19725,0.42737 0.6575,0.789 0.46025,0.32875 1.1835,0.55887 0.72325,0.19725 1.77525,0.19725 z m 15.74713,7.72563 q 0,-2.63 0,-5.22713 0,-2.63 0,-5.22712 0,-2.63 0,-5.22713 0,-2.235495 0,-4.470995 0,-2.268375 0,-4.503875 h 11.37475 q 0,1.38075 0,2.7615 0,1.347875 0,2.728625 0,4.766875 0,9.566625 0,4.79975 0,9.5995 z m 14.30062,-19.199 v 7.85712 q 1.47937,-0.95337 3.45187,-1.4465 1.9725,-0.49312 3.91213,-0.49312 1.24925,0 2.367,0.23012 1.15062,0.23013 2.00537,0.72325 0.88763,0.46025 1.38075,1.21638 0.526,0.72325 0.526,1.74237 0,0.0329 0,0.0986 0,0.0329 0,0.0986 0,0.0329 0,0.0986 -0.49312,-0.6575 -1.28212,-1.1835 -0.75613,-0.526 -1.74238,-0.88763 -0.95337,-0.36162 -2.03825,-0.526 -1.08487,-0.19725 -2.2355,-0.19725 -1.77525,0 -3.156,0.36163 -1.38075,0.32875 -2.39987,0.95337 -0.98625,0.62463 -1.64375,1.4465 -0.6575,0.82188 -0.98625,1.74238 -0.32875,0.9205 -0.32875,1.87387 0,1.578 0.6575,2.7615 0.6575,1.1835 1.77525,1.9725 1.15062,0.789 2.56425,1.1835 1.4465,0.42738 2.99162,0.42738 1.28213,0 2.56425,-0.263 1.315,-0.23013 2.4985,-0.82188 0.69038,-1.61087 1.38075,-3.22175 0.72325,-1.61087 1.41363,-3.22175 -0.3945,0.95338 -1.15063,1.1835 -0.75612,0.23013 -1.34787,0.23013 -1.21638,0 -1.87388,-0.49313 -0.6575,-0.526 -0.6575,-1.15062 0,-0.62463 0.62463,-1.11775 0.6575,-0.49313 1.90675,-0.49313 0.55887,0 1.11775,0.16438 0.55887,0.1315 0.95337,0.49312 0.3945,0.36163 0.3945,0.95338 0,1.7095 0,3.45187 0,1.7095 0,3.45188 1.15063,0 2.30125,0 1.15063,0 2.30125,0 1.15063,0 2.30125,0 1.15063,0 2.30125,0 1.15063,0 2.30125,0 0,-3.18888 0,-6.37775 0,-3.18888 0,-6.37775 0,-2.16975 -1.1835,-3.78063 -1.1835,-1.61087 -3.22175,-2.695745 -2.00537,-1.084875 -4.56962,-1.610875 -2.56425,-0.526 -5.32575,-0.526 -2.82725,0 -5.6545,0.558875 -2.79438,0.526 -5.19425,1.610875 z m 26.43152,19.199 q 0,-2.63 0,-5.22713 0,-2.63 0,-5.22712 0,-2.63 0,-5.22713 0,-2.235495 0,-4.470995 0,-2.268375 0,-4.503875 h 11.37475 q 0,1.38075 0,2.7615 0,1.347875 0,2.728625 0,4.766875 0,9.566625 0,4.79975 0,9.5995 z m 14.30061,-19.199 v 7.85712 q 1.47937,-0.95337 3.45187,-1.4465 1.9725,-0.49312 3.91213,-0.49312 1.24925,0 2.367,0.23012 1.15062,0.23013 2.00537,0.72325 0.88763,0.46025 1.38075,1.21638 0.526,0.72325 0.526,1.74237 0,0.0329 0,0.0986 0,0.0329 0,0.0986 0,0.0329 0,0.0986 -0.49312,-0.6575 -1.28212,-1.1835 -0.75613,-0.526 -1.74238,-0.88763 -0.95337,-0.36162 -2.03825,-0.526 -1.08487,-0.19725 -2.2355,-0.19725 -1.77525,0 -3.156,0.36163 -1.38075,0.32875 -2.39987,0.95337 -0.98625,0.62463 -1.64375,1.4465 -0.6575,0.82188 -0.98625,1.74238 -0.32875,0.9205 -0.32875,1.87387 0,1.578 0.6575,2.7615 0.6575,1.1835 1.77525,1.9725 1.15062,0.789 2.56425,1.1835 1.4465,0.42738 2.99162,0.42738 1.28213,0 2.56425,-0.263 1.315,-0.23013 2.4985,-0.82188 0.69038,-1.61087 1.38075,-3.22175 0.72325,-1.61087 1.41363,-3.22175 -0.3945,0.95338 -1.15063,1.1835 -0.75612,0.23013 -1.34787,0.23013 -1.21638,0 -1.87388,-0.49313 -0.6575,-0.526 -0.6575,-1.15062 0,-0.62463 0.62463,-1.11775 0.6575,-0.49313 1.90675,-0.49313 0.55887,0 1.11775,0.16438 0.55887,0.1315 0.95337,0.49312 0.3945,0.36163 0.3945,0.95338 0,1.7095 0,3.45187 0,1.7095 0,3.45188 1.15063,0 2.30125,0 1.15063,0 2.30125,0 1.15063,0 2.30125,0 1.15063,0 2.30125,0 1.15063,0 2.30125,0 0,-3.18888 0,-6.37775 0,-3.18888 0,-6.37775 0,-2.16975 -1.1835,-3.78063 -1.1835,-1.61087 -3.22175,-2.695745 -2.00537,-1.084875 -4.56962,-1.610875 -2.56425,-0.526 -5.32575,-0.526 -2.82725,0 -5.6545,0.558875 -2.79438,0.526 -5.19425,1.610875 z m 26.43153,-5.45725 h 11.37475 q 0,1.315 0,3.254625 0,1.90675 0,4.01075 0,2.071125 0,4.010745 0,1.90675 0,3.22175 0,0.62463 0.32875,1.08488 0.32875,0.46025 0.88762,0.75612 0.55888,0.29588 1.24925,0.46025 0.72325,0.1315 1.4465,0.1315 1.93963,0 2.86013,-0.75612 0.9205,-0.75613 0.9205,-1.67663 0,-0.69037 -0.42738,-1.24925 -0.3945,-0.55887 -1.24925,-0.88762 -0.82187,-0.36163 -2.104,-0.36163 -1.38075,0 -2.46562,0.49313 -1.052,0.49312 -1.41363,1.61087 l 2.59713,-9.82962 q 1.08487,-0.263 2.13687,-0.361625 1.08488,-0.1315 2.104,-0.1315 2.53138,0 4.76688,0.72325 2.2355,0.690375 3.91212,2.071125 1.7095,1.38075 2.66288,3.35325 0.98625,1.9725 0.98625,4.50387 0,2.43275 -0.98625,4.40525 -0.95338,1.9725 -2.63,3.38613 -1.64375,1.41362 -3.71488,2.16975 -2.07112,0.75612 -4.30662,0.75612 -0.95338,0 -1.9725,-0.1315 -0.98625,-0.1315 -1.9725,-0.42737 -0.98625,-0.29588 -1.90675,-0.82188 -0.88763,-0.526 -1.64375,-1.315 -0.0329,-0.0329 -0.0658,0 0,0 0,0.0329 v 2.16975 h -11.37475 q 0,-2.2355 0,-4.43813 0,-2.2355 0,-4.43812 0,-2.2355 0,-4.43813 0,-2.2355 0,-4.470995 0,-1.7095 0,-3.419 0,-1.742375 0,-3.451875 z"
         id="text5"
         style="font-size:32.875px;font-family:'Climate Crisis';-inkscape-font-specification:'Climate Crisis';letter-spacing:0px;fill:#ffe064;stroke-width:0.462218;stroke-linejoin:bevel"
         aria-label="lolalab" />
    </g>
  </g>
</svg>
