<?xml version="1.0" encoding="UTF-8" standalone="no"?>
<!-- Created with Inkscape (http://www.inkscape.org/) -->

<svg
   width="209.26923mm"
   height="26.859995mm"
   viewBox="0 0 209.26923 26.859995"
   version="1.1"
   id="svg1"
   inkscape:version="1.4.2 (ebf0e940, 2025-05-08)"
   sodipodi:docname="blocks-logo-and-text_colour_web_YELLOW.svg"
   inkscape:export-filename="blocks-logo-and-text_colour_web.png"
   inkscape:export-xdpi="500"
   inkscape:export-ydpi="500"
   xmlns:inkscape="http://www.inkscape.org/namespaces/inkscape"
   xmlns:sodipodi="http://sodipodi.sourceforge.net/DTD/sodipodi-0.dtd"
   xmlns="http://www.w3.org/2000/svg"
   xmlns:svg="http://www.w3.org/2000/svg">
  <sodipodi:namedview
     id="namedview1"
     pagecolor="#ffffff"
     bordercolor="#000000"
     borderopacity="0.25"
     inkscape:showpageshadow="2"
     inkscape:pageopacity="0.0"
     inkscape:pagecheckerboard="0"
     inkscape:deskcolor="#d1d1d1"
     inkscape:document-units="mm"
     inkscape:zoom="1.962824"
     inkscape:cx="357.9027"
     inkscape:cy="1.5284101"
     inkscape:window-width="2560"
     inkscape:window-height="1387"
     inkscape:window-x="0"
     inkscape:window-y="25"
     inkscape:window-maximized="1"
     inkscape:current-layer="g2"
     showguides="true" />
  <defs
     id="defs1" />
  <g
     inkscape:label="Layer 1"
     inkscape:groupmode="layer"
     id="layer1"
     transform="translate(-43.865384,-91.570002)">
    <g
       id="g2"
       transform="translate(-0.05345177,-2.25e-5)">
      <path
         d="m 98.215262,117.44377 q 0,-2.63 0,-5.22713 0,-2.63 0,-5.22712 0,-2.63 0,-5.22713 0,-2.235496 0,-4.470996 0,-2.268375 0,-4.503875 h 11.374748 q 0,1.38075 0,2.7615 0,1.347875 0,2.728625 0,4.766876 0,9.566626 0,4.79975 0,9.5995 z M 125.37,118.43002 q -2.03825,0 -3.945,-0.29588 -1.90675,-0.29587 -3.5505,-0.88762 -1.64375,-0.62463 -2.99163,-1.54513 -1.34787,-0.9205 -2.30125,-2.13687 -0.95337,-1.24925 -1.47937,-2.79438 -0.526,-1.578 -0.526,-3.48475 0,-2.2355 0.72325,-4.01075 0.75612,-1.80812 2.104,-3.156 1.38075,-1.347871 3.22175,-2.235496 1.841,-0.9205 4.04362,-1.347875 2.2355,-0.46025 4.70113,-0.46025 3.09025,0 5.75312,0.72325 2.69575,0.690375 4.70113,2.104 2.03825,1.380751 3.18887,3.484751 1.15063,2.104 1.15063,4.89837 0,2.79438 -1.15063,4.89838 -1.15062,2.07112 -3.18887,3.48475 -2.00538,1.38075 -4.70113,2.07112 -2.66287,0.69038 -5.75312,0.69038 z m 0.0329,-8.71188 q 2.03825,0 2.893,-0.789 0.85475,-0.789 0.85475,-1.7095 0,-0.42737 -0.19725,-0.85475 -0.19725,-0.42737 -0.62462,-0.789 -0.42738,-0.36162 -1.15063,-0.55887 -0.72325,-0.23013 -1.77525,-0.23013 -1.052,0 -1.80812,0.23013 -0.72325,0.19725 -1.1835,0.55887 -0.42738,0.36163 -0.62463,0.789 -0.19725,0.42738 -0.19725,0.88763 0,0.46025 0.19725,0.9205 0.19725,0.42737 0.6575,0.789 0.46025,0.32875 1.1835,0.55887 0.72325,0.19725 1.77525,0.19725 z m 15.74713,7.72563 q 0,-2.63 0,-5.22713 0,-2.63 0,-5.22712 0,-2.63 0,-5.22713 0,-2.235496 0,-4.470996 0,-2.268375 0,-4.503875 h 11.37475 q 0,1.38075 0,2.7615 0,1.347875 0,2.728625 0,4.766876 0,9.566626 0,4.79975 0,9.5995 z m 14.30062,-19.199001 v 7.857121 q 1.47937,-0.95337 3.45187,-1.4465 1.9725,-0.49312 3.91213,-0.49312 1.24925,0 2.367,0.23012 1.15062,0.23013 2.00537,0.72325 0.88763,0.46025 1.38075,1.21638 0.526,0.72325 0.526,1.74237 0,0.0329 0,0.0986 0,0.0329 0,0.0986 0,0.0329 0,0.0986 -0.49312,-0.6575 -1.28212,-1.1835 -0.75613,-0.526 -1.74238,-0.88763 -0.95337,-0.36162 -2.03825,-0.526 -1.08487,-0.19725 -2.2355,-0.19725 -1.77525,0 -3.156,0.36163 -1.38075,0.32875 -2.39987,0.95337 -0.98625,0.62463 -1.64375,1.4465 -0.6575,0.82188 -0.98625,1.74238 -0.32875,0.9205 -0.32875,1.87387 0,1.578 0.6575,2.7615 0.6575,1.1835 1.77525,1.9725 1.15062,0.789 2.56425,1.1835 1.4465,0.42738 2.99162,0.42738 1.28213,0 2.56425,-0.263 1.315,-0.23013 2.4985,-0.82188 0.69038,-1.61087 1.38075,-3.22175 0.72325,-1.61087 1.41363,-3.22175 -0.3945,0.95338 -1.15063,1.1835 -0.75612,0.23013 -1.34787,0.23013 -1.21638,0 -1.87388,-0.49313 -0.6575,-0.526 -0.6575,-1.15062 0,-0.62463 0.62463,-1.11775 0.6575,-0.49313 1.90675,-0.49313 0.55887,0 1.11775,0.16438 0.55887,0.1315 0.95337,0.49312 0.3945,0.36163 0.3945,0.95338 0,1.7095 0,3.45187 0,1.7095 0,3.45188 1.15063,0 2.30125,0 1.15063,0 2.30125,0 1.15063,0 2.30125,0 1.15063,0 2.30125,0 1.15063,0 2.30125,0 0,-3.18888 0,-6.37775 0,-3.18888 0,-6.37775 0,-2.16975 -1.1835,-3.78063 -1.1835,-1.610871 -3.22175,-2.695746 -2.00537,-1.084875 -4.56962,-1.610875 -2.56425,-0.526 -5.32575,-0.526 -2.82725,0 -5.6545,0.558875 -2.79438,0.526 -5.19425,1.610875 z m 26.43152,19.199001 q 0,-2.63 0,-5.22713 0,-2.63 0,-5.22712 0,-2.63 0,-5.22713 0,-2.235496 0,-4.470996 0,-2.268375 0,-4.503875 h 11.37475 q 0,1.38075 0,2.7615 0,1.347875 0,2.728625 0,4.766876 0,9.566626 0,4.79975 0,9.5995 z m 14.30061,-19.199001 v 7.857121 q 1.47937,-0.95337 3.45187,-1.4465 1.9725,-0.49312 3.91213,-0.49312 1.24925,0 2.367,0.23012 1.15062,0.23013 2.00537,0.72325 0.88763,0.46025 1.38075,1.21638 0.526,0.72325 0.526,1.74237 0,0.0329 0,0.0986 0,0.0329 0,0.0986 0,0.0329 0,0.0986 -0.49312,-0.6575 -1.28212,-1.1835 -0.75613,-0.526 -1.74238,-0.88763 -0.95337,-0.36162 -2.03825,-0.526 -1.08487,-0.19725 -2.2355,-0.19725 -1.77525,0 -3.156,0.36163 -1.38075,0.32875 -2.39987,0.95337 -0.98625,0.62463 -1.64375,1.4465 -0.6575,0.82188 -0.98625,1.74238 -0.32875,0.9205 -0.32875,1.87387 0,1.578 0.6575,2.7615 0.6575,1.1835 1.77525,1.9725 1.15062,0.789 2.56425,1.1835 1.4465,0.42738 2.99162,0.42738 1.28213,0 2.56425,-0.263 1.315,-0.23013 2.4985,-0.82188 0.69038,-1.61087 1.38075,-3.22175 0.72325,-1.61087 1.41363,-3.22175 -0.3945,0.95338 -1.15063,1.1835 -0.75612,0.23013 -1.34787,0.23013 -1.21638,0 -1.87388,-0.49313 -0.6575,-0.526 -0.6575,-1.15062 0,-0.62463 0.62463,-1.11775 0.6575,-0.49313 1.90675,-0.49313 0.55887,0 1.11775,0.16438 0.55887,0.1315 0.95337,0.49312 0.3945,0.36163 0.3945,0.95338 0,1.7095 0,3.45187 0,1.7095 0,3.45188 1.15063,0 2.30125,0 1.15063,0 2.30125,0 1.15063,0 2.30125,0 1.15063,0 2.30125,0 1.15063,0 2.30125,0 0,-3.18888 0,-6.37775 0,-3.18888 0,-6.37775 0,-2.16975 -1.1835,-3.78063 -1.1835,-1.610871 -3.22175,-2.695746 -2.00537,-1.084875 -4.56962,-1.610875 -2.56425,-0.526 -5.32575,-0.526 -2.82725,0 -5.6545,0.558875 -2.79438,0.526 -5.19425,1.610875 z m 26.43153,-5.45725 h 11.37475 q 0,1.315 0,3.254625 0,1.90675 0,4.010746 0,2.07113 0,4.01075 0,1.90675 0,3.22175 0,0.62463 0.32875,1.08488 0.32875,0.46025 0.88762,0.75612 0.55888,0.29588 1.24925,0.46025 0.72325,0.1315 1.4465,0.1315 1.93963,0 2.86013,-0.75612 0.9205,-0.75613 0.9205,-1.67663 0,-0.69037 -0.42738,-1.24925 -0.3945,-0.55887 -1.24925,-0.88762 -0.82187,-0.36163 -2.104,-0.36163 -1.38075,0 -2.46562,0.49313 -1.052,0.49312 -1.41363,1.61087 l 2.59713,-9.829621 q 1.08487,-0.263 2.13687,-0.361625 1.08488,-0.1315 2.104,-0.1315 2.53138,0 4.76688,0.72325 2.2355,0.690375 3.91212,2.071125 1.7095,1.380751 2.66288,3.353251 0.98625,1.9725 0.98625,4.50387 0,2.43275 -0.98625,4.40525 -0.95338,1.9725 -2.63,3.38613 -1.64375,1.41362 -3.71488,2.16975 -2.07112,0.75612 -4.30662,0.75612 -0.95338,0 -1.9725,-0.1315 -0.98625,-0.1315 -1.9725,-0.42737 -0.98625,-0.29588 -1.90675,-0.82188 -0.88763,-0.526 -1.64375,-1.315 -0.0329,-0.0329 -0.0658,0 0,0 0,0.0329 v 2.16975 h -11.37475 q 0,-2.2355 0,-4.43813 0,-2.2355 0,-4.43812 0,-2.2355 0,-4.43813 0,-2.2355 0,-4.470996 0,-1.7095 0,-3.419 0,-1.742375 0,-3.451875 z"
         id="text5"
         style="font-size:32.875px;font-family:'Climate Crisis';-inkscape-font-specification:'Climate Crisis';letter-spacing:0px;fill:#eabb06;stroke-width:0.462218;stroke-linejoin:bevel;fill-opacity:1"
         aria-label="lolalab" />
      <g
         id="g1"
         transform="matrix(0.47978153,0,0,0.47978153,-9.8964922,59.775096)">
        <path
           id="path5-7-1-0-3-5-4-8-6-9-1"
           style="fill:#c69f05;fill-opacity:1;stroke:none;stroke-width:0.416463;stroke-linejoin:bevel;stroke-dasharray:none"
           d="M 148.50033,70.572969 V 87.78659 h 13.66837 v 8.566965 h 13.66874 v 8.686155 h 27.3371 v -8.566957 l -13.66874,-0.11922 v 0 -8.527132 -0.0398 h -13.66836 v -8.566975 -0.07962 H 162.1687 v -8.566959 z"
           sodipodi:nodetypes="cccccccccccccccccc" />
        <path
           style="fill:#ffe57f;fill-opacity:1;stroke:none;stroke-width:0.416463;stroke-linejoin:bevel;stroke-dasharray:none"
           d="m 169.00304,66.269597 -6.83432,4.303372 v 8.60677 l 6.83432,-4.263607 z"
           id="path7-8-7-8-0-5-9-7-9-8-0"
           sodipodi:nodetypes="ccccc" />
        <path
           style="fill:#ffe57f;fill-opacity:1;stroke:none;stroke-width:0.416463;stroke-linejoin:bevel;stroke-dasharray:none"
           d="m 175.83727,79.219653 v 8.646559 l 6.83434,-4.303395 v -8.646559 z"
           id="path9-7-8-4-7-1-2-3-4-59-4"
           sodipodi:nodetypes="ccccc" />
        <path
           style="fill:#eabb06;fill-opacity:1;stroke:none;stroke-width:0.416463;stroke-linejoin:bevel;stroke-dasharray:none"
           d="m 148.50025,70.572969 6.83423,-4.303372 h 13.66856 l -6.83432,4.303372 z"
           id="path6-9-5-3-4-5-0-8-7-2-5"
           sodipodi:nodetypes="ccccc" />
        <path
           style="fill:#eabb06;fill-opacity:1;stroke:none;stroke-width:0.416463;stroke-linejoin:bevel;stroke-dasharray:none"
           d="m 189.5058,96.452951 6.8344,-4.28349 h 13.66847 l -6.83423,4.303396 z"
           id="path6-8-9-1-2-0-4-0-8-6-55-8"
           sodipodi:nodetypes="ccccc" />
        <path
           style="fill:#eabb06;fill-opacity:1;stroke:none;stroke-width:0.416463;stroke-linejoin:bevel;stroke-dasharray:none"
           d="m 162.16872,79.179739 13.66855,0.0398 6.83434,-4.303374 h -13.66857 z"
           id="path8-3-0-2-8-1-8-9-8-9-2"
           sodipodi:nodetypes="ccccc" />
        <path
           style="fill:#eabb06;fill-opacity:1;stroke:none;stroke-width:0.416463;stroke-linejoin:bevel;stroke-dasharray:none"
           d="m 175.83727,87.866212 13.66859,-0.07983 6.83434,-4.303374 h -13.66859 z"
           id="path8-3-0-2-8-1-8-8-6-1-1-1"
           sodipodi:nodetypes="ccccc" />
        <path
           style="fill:#ffe57f;fill-opacity:1;stroke:none;stroke-width:0.416463;stroke-linejoin:bevel;stroke-dasharray:none"
           d="m 189.50586,87.786383 -6e-5,8.666568 6.8344,-4.263607 v -8.706335 z"
           id="path11-2-3-3-8-1-5-8-3-1-6"
           sodipodi:nodetypes="ccccc" />
        <path
           style="fill:#ffe57f;fill-opacity:1;stroke:none;stroke-width:0.416463;stroke-linejoin:bevel;stroke-dasharray:none"
           d="m 203.17444,96.472857 v 8.566963 l 6.83423,-4.30338 v -8.566979 z"
           id="path12-6-7-5-4-9-8-6-8-4-0"
           sodipodi:nodetypes="ccccc" />
        <path
           id="path5-7-1-0-3-5-4-8-6-9"
           style="fill:#c69f05;fill-opacity:1;stroke:none;stroke-width:0.416463;stroke-linejoin:bevel;stroke-dasharray:none"
           d="m 134.83159,79.219632 v 17.213605 h 13.66837 v 8.566983 h 13.66874 v 8.68615 h 27.3371 v -8.56695 h -13.66874 v -0.11922 -8.527135 -0.0398 H 162.1687 v -8.56696 -0.07962 h -13.66874 v -8.566992 z" />
        <path
           style="fill:#ffe57f;fill-opacity:1;stroke:none;stroke-width:0.416463;stroke-linejoin:bevel;stroke-dasharray:none"
           d="m 155.33429,74.916258 -6.83431,4.303374 v 8.606769 l 6.83431,-4.263606 z"
           id="path7-8-7-8-0-5-9-7-9-8"
           sodipodi:nodetypes="ccccc" />
        <path
           style="fill:#ffe57f;fill-opacity:1;stroke:none;stroke-width:0.416463;stroke-linejoin:bevel;stroke-dasharray:none"
           d="m 162.16853,87.866316 v 8.646538 l 6.83435,-4.303375 V 83.56292 Z"
           id="path9-7-8-4-7-1-2-3-4-59"
           sodipodi:nodetypes="ccccc" />
        <path
           style="fill:#eabb06;fill-opacity:1;stroke:none;stroke-width:0.416463;stroke-linejoin:bevel;stroke-dasharray:none"
           d="m 134.83151,79.219632 6.83423,-4.303374 h 13.66855 l -6.83431,4.303374 z"
           id="path6-9-5-3-4-5-0-8-7-2"
           sodipodi:nodetypes="ccccc" />
        <path
           style="fill:#eabb06;fill-opacity:1;stroke:none;stroke-width:0.416463;stroke-linejoin:bevel;stroke-dasharray:none"
           d="m 175.83709,105.1195 6.83438,-4.30338 h 13.66846 l -6.83423,4.30338 z"
           id="path6-8-9-1-2-0-4-0-8-6-55"
           sodipodi:nodetypes="ccccc" />
        <path
           style="fill:#eabb06;fill-opacity:1;stroke:none;stroke-width:0.416463;stroke-linejoin:bevel;stroke-dasharray:none"
           d="m 148.49998,87.826401 13.66855,0.0398 6.83435,-4.303395 h -13.66859 z"
           id="path8-3-0-2-8-1-8-9-8-9"
           sodipodi:nodetypes="ccccc" />
        <path
           style="fill:#eabb06;fill-opacity:1;stroke:none;stroke-width:0.416463;stroke-linejoin:bevel;stroke-dasharray:none"
           d="m 162.16853,96.512854 13.66859,-0.07983 6.83435,-4.303374 h -13.66859 z"
           id="path8-3-0-2-8-1-8-8-6-1-1"
           sodipodi:nodetypes="ccccc" />
        <path
           style="fill:#ffe57f;fill-opacity:1;stroke:none;stroke-width:0.416463;stroke-linejoin:bevel;stroke-dasharray:none"
           d="m 175.83709,96.453055 v 8.646555 l 6.83438,-4.2636 v -8.64654 z"
           id="path11-2-3-3-8-1-5-8-3-1"
           sodipodi:nodetypes="ccccc" />
        <path
           style="fill:#ffe57f;fill-opacity:1;stroke:none;stroke-width:0.416463;stroke-linejoin:bevel;stroke-dasharray:none"
           d="m 189.5057,105.1195 v 8.56698 l 6.83423,-4.30338 v -8.56698 z"
           id="path12-6-7-5-4-9-8-6-8-4"
           sodipodi:nodetypes="ccccc" />
        <path
           id="path5-7-1-0-3-5-4-8-6"
           style="fill:#c69f05;fill-opacity:1;stroke:none;stroke-width:0.416463;stroke-linejoin:bevel;stroke-dasharray:none"
           d="m 121.16302,87.786552 v 17.213618 h 13.66836 v 8.56696 h 13.66875 v 8.68616 h 27.3371 v -8.56696 h -13.66874 v -0.11922 -8.52713 -0.0398 h -13.66836 v -8.566975 -0.07962 h -13.66875 v -8.56697 z" />
        <path
           style="fill:#ffe57f;fill-opacity:1;stroke:none;stroke-width:0.416463;stroke-linejoin:bevel;stroke-dasharray:none"
           d="m 141.66572,83.483178 -6.83431,4.303396 v 8.60677 l 6.83431,-4.263607 z"
           id="path7-8-7-8-0-5-9-7-9"
           sodipodi:nodetypes="ccccc" />
        <path
           style="fill:#ffe57f;fill-opacity:1;stroke:none;stroke-width:0.416463;stroke-linejoin:bevel;stroke-dasharray:none"
           d="m 148.49996,96.433237 v 8.646553 l 6.83434,-4.30339 v -8.646537 z"
           id="path9-7-8-4-7-1-2-3-4"
           sodipodi:nodetypes="ccccc" />
        <path
           style="fill:#eabb06;fill-opacity:1;stroke:none;stroke-width:0.416463;stroke-linejoin:bevel;stroke-dasharray:none"
           d="m 121.16294,87.786574 6.83423,-4.303396 h 13.66855 l -6.83431,4.303396 z"
           id="path6-9-5-3-4-5-0-8-7"
           sodipodi:nodetypes="ccccc" />
        <path
           style="fill:#eabb06;fill-opacity:1;stroke:none;stroke-width:0.416463;stroke-linejoin:bevel;stroke-dasharray:none"
           d="m 162.16852,113.68643 6.83437,-4.30339 h 13.66847 l -6.83424,4.30339 z"
           id="path6-8-9-1-2-0-4-0-8-6"
           sodipodi:nodetypes="ccccc" />
        <path
           style="fill:#eabb06;fill-opacity:1;stroke:none;stroke-width:0.416463;stroke-linejoin:bevel;stroke-dasharray:none"
           d="m 134.83141,96.393344 13.66855,0.0398 6.83434,-4.303374 h -13.66858 z"
           id="path8-3-0-2-8-1-8-9-8"
           sodipodi:nodetypes="ccccc" />
        <path
           style="fill:#eabb06;fill-opacity:1;stroke:none;stroke-width:0.416463;stroke-linejoin:bevel;stroke-dasharray:none"
           d="m 148.5,104.9602 13.66855,0.0398 6.83434,-4.30338 h -13.66858 z"
           id="path8-3-0-2-8-1-8-8-6-1"
           sodipodi:nodetypes="ccccc" />
        <path
           style="fill:#ffe57f;fill-opacity:1;stroke:none;stroke-width:0.416463;stroke-linejoin:bevel;stroke-dasharray:none"
           d="m 162.16852,105.01998 v 8.64655 l 6.83437,-4.2636 v -8.64654 z"
           id="path11-2-3-3-8-1-5-8-3"
           sodipodi:nodetypes="ccccc" />
        <path
           style="fill:#ffe57f;fill-opacity:1;stroke:none;stroke-width:0.416463;stroke-linejoin:bevel;stroke-dasharray:none"
           d="m 175.83712,113.68643 v 8.56697 l 6.83424,-4.30338 v -8.56698 z"
           id="path12-6-7-5-4-9-8-6-8"
           sodipodi:nodetypes="ccccc" />
      </g>
    </g>
  </g>
</svg>
